<?xml version="1.0"?>
<svg xmlns="http://www.w3.org/2000/svg" xmlns:xlink="http://www.w3.org/1999/xlink" xmlns:svgjs="http://svgjs.com/svgjs" version="1.1" width="512" height="512" x="0" y="0" viewBox="0 0 512 512" style="enable-background:new 0 0 512 512" xml:space="preserve" class=""><g><g xmlns="http://www.w3.org/2000/svg" fill="#bfc9d1"><path d="m0 0h128v128h-128zm0 0" fill="#ffffff" data-original="#bfc9d1" style="" class=""/><path d="m192 0h128v128h-128zm0 0" fill="#ffffff" data-original="#bfc9d1" style="" class=""/><path d="m384 0h128v128h-128zm0 0" fill="#ffffff" data-original="#bfc9d1" style="" class=""/><path d="m0 192h128v128h-128zm0 0" fill="#ffffff" data-original="#bfc9d1" style="" class=""/></g><path xmlns="http://www.w3.org/2000/svg" d="m192 192h128v128h-128zm0 0" fill="#ffffff" data-original="#82b1ff" style="" class=""/><path xmlns="http://www.w3.org/2000/svg" d="m384 192h128v128h-128zm0 0" fill="#ffffff" data-original="#bfc9d1" style="" class=""/><path xmlns="http://www.w3.org/2000/svg" d="m0 384h128v128h-128zm0 0" fill="#ffffff" data-original="#bfc9d1" style="" class=""/><path xmlns="http://www.w3.org/2000/svg" d="m192 384h128v128h-128zm0 0" fill="#ffffff" data-original="#bfc9d1" style="" class=""/><path xmlns="http://www.w3.org/2000/svg" d="m384 384h128v128h-128zm0 0" fill="#ffffff" data-original="#bfc9d1" style="" class=""/></g></svg>
