<?xml version="1.0"?>
<svg xmlns="http://www.w3.org/2000/svg" xmlns:xlink="http://www.w3.org/1999/xlink" xmlns:svgjs="http://svgjs.com/svgjs" version="1.1" width="512" height="512" x="0" y="0" viewBox="0 0 512 512" style="enable-background:new 0 0 512 512" xml:space="preserve"><g><path xmlns="http://www.w3.org/2000/svg" d="m512 30.90625v450.1875c0 17.070312-13.835938 30.90625-30.90625 30.90625h-450.1875c-17.070312 0-30.90625-13.835938-30.90625-30.90625v-450.1875c0-17.070312 13.835938-30.90625 30.90625-30.90625h450.1875c17.070312 0 30.90625 13.835938 30.90625 30.90625zm0 0" fill="#f75820" data-original="#f75820" style=""/><path xmlns="http://www.w3.org/2000/svg" d="m64.222656 512h-33.316406c-17.070312 0-30.90625-13.835938-30.90625-30.90625v-450.1875c0-17.070312 13.835938-30.90625 30.90625-30.90625h33.316406c-17.070312 0-30.90625 13.835938-30.90625 30.90625v450.1875c0 17.070312 13.835938 30.90625 30.90625 30.90625zm0 0" fill="#f88224" data-original="#f88224" style=""/><path xmlns="http://www.w3.org/2000/svg" d="m512 30.90625v450.1875c0 17.070312-13.835938 30.90625-30.90625 30.90625h-199.03125c152.582031-175.789062 169.96875-420.992188 170.824219-512h28.207031c17.070312 0 30.90625 13.835938 30.90625 30.90625zm0 0" fill="#f93212" data-original="#f93212" style=""/><path xmlns="http://www.w3.org/2000/svg" d="m137.625 146.308594v219.382812c0 7.058594 7.441406 11.644532 13.746094 8.464844l217.789062-109.6875c6.953125-3.503906 6.953125-13.433594 0-16.9375l-217.789062-109.6875c-6.304688-3.175781-13.746094 1.40625-13.746094 8.464844zm0 0" fill="#deefff" data-original="#deefff" style=""/></g></svg>
