<?xml version="1.0"?>
<svg xmlns="http://www.w3.org/2000/svg" xmlns:xlink="http://www.w3.org/1999/xlink" xmlns:svgjs="http://svgjs.com/svgjs" version="1.1" width="512" height="512" x="0" y="0" viewBox="0 0 512 512" style="enable-background:new 0 0 512 512" xml:space="preserve" class=""><g><path xmlns="http://www.w3.org/2000/svg" d="m471.48 437.2c0-29.975-12.295-53.991-38.691-75.58-18.861-15.432-29.679-38.737-29.679-63.941v-94.77c0-61.385-39.474-117.637-97.29-138.435 8.277-32.121-16.725-64.474-49.9-64.474-33.235 0-58.251 32.465-49.859 64.622-57.836 21.204-97.171 78.157-97.171 139.678v93.39c0 24.965-11.037 48.444-30.272 64.411-22.821 18.917-38.098 44.953-38.098 75.099v15h145.722c4.872 34.142 34.291 59.8 69.758 59.8s64.886-25.658 69.758-59.8h145.722zm-215.56-407.2c11.872 0 21.53 9.659 21.53 21.53 0 11.73-9.785 21.53-21.53 21.53-11.764 0-21.53-9.789-21.53-21.53 0-11.871 9.658-21.53 21.53-21.53zm-117.03 174.3c0-52.235 34.69-98.715 83.582-113.553 18.978 16.268 48.076 16.215 67.009-.096 18.56 5.525 35.485 15.608 49.333 29.456 22.116 22.117 34.296 51.523 34.296 82.804v94.77c0 9.708 1.195 19.217 3.492 28.342h-241.284c2.349-9.153 3.572-18.659 3.572-28.332zm117.11 278.38c-18.871 0-34.768-12.979-39.23-30.479h78.46c-4.462 17.5-20.359 30.479-39.23 30.479zm-183.769-60.48c3.65-14.66 14.094-27.523 25.54-37.008 10.074-8.362 18.483-18.245 25.025-29.17h266.189c6.479 10.877 14.816 20.644 24.81 28.82 14.462 11.828 22.746 23.54 26.027 37.359h-367.591z" fill="#ffffff" data-original="#000000" style="" class=""/></g></svg>
