<svg id="Icons" height="512" viewBox="0 0 512 512" width="512" xmlns="http://www.w3.org/2000/svg"><circle cx="256" cy="256" fill="#15be79" r="256"/><path d="m473.68 390.75c-71.29 115.35-221.33 155.62-341.35 89.39-118.33-65.31-164.69-210.56-108.8-331.37 23.47-6.59 44.35-24.39 69-25.9 26.49-1.64 52.5 19 56.89 45.21 3 17.77-2.95 36.3 1.09 53.87 4.47 19.46 22.12 35.15 42 37.31 7.87.86 16.08-.18 23.55 2.46 11.3 4 18.38 15.41 29.14 20.68 13.09 6.42 28.85 2.51 42.25-3.28s26.49-13.45 41-14.47c25.16-1.75 47.93 17.61 58.25 40.61 7.64 17 10.51 36.8 23.32 50.31 16.76 17.7 45.85 19.43 63.66 35.18z" fill="#14a36d"/><rect fill="#efb659" height="303.08" rx="12.58" transform="matrix(.866 -.5 .5 .866 -47.19 183.39)" width="139.27" x="248.99" y="28.22"/><path d="m443.81 282.47-95.26 55-136.9-237.12a12.58 12.58 0 0 1 4.61-17.18l95.25-55 136.9 237.12a12.57 12.57 0 0 1 -4.6 17.18z" fill="#fbcb74"/><path d="m443.81 282.47-98.81 57.06a12.57 12.57 0 0 1 -17.18-4.6l-118.26-204.8 120.61-69.63 118.24 204.79a12.57 12.57 0 0 1 -4.6 17.18z" fill="#decee5"/><path d="m443.81 282.47-95.26 55-124.55-215.69 106.17-61.28 118.24 204.79a12.57 12.57 0 0 1 -4.6 17.18z" fill="#ebd9ea"/><path d="m317.69 67.7a3.33 3.33 0 0 1 .94-4.58l4.6-2.66a3.53 3.53 0 0 1 3.5 6.07l-4.6 2.65a3.32 3.32 0 0 1 -4.44-1.48z" fill="#f39e22"/><path d="m237.93 113.75a3.31 3.31 0 0 1 .94-4.58l8.86-5.11a3.53 3.53 0 0 1 3.5 6.06l-8.86 5.12a3.33 3.33 0 0 1 -4.44-1.49zm26.59-15.35a3.32 3.32 0 0 1 .93-4.58l8.87-5.11a3.53 3.53 0 0 1 3.5 6.06l-8.82 5.11a3.31 3.31 0 0 1 -4.48-1.48zm26.59-15.35a3.32 3.32 0 0 1 .93-4.58l8.86-5.11a3.52 3.52 0 0 1 3.5 6.06l-8.86 5.11a3.3 3.3 0 0 1 -4.43-1.48z" fill="#f39e22"/><path d="m215.6 126.64a3.33 3.33 0 0 1 .94-4.58l4.6-2.65a3.53 3.53 0 0 1 3.5 6.06l-4.6 2.66a3.33 3.33 0 0 1 -4.44-1.49z" fill="#f39e22"/><ellipse cx="389.7" cy="198.48" fill="#f4e6f4" rx="14.78" ry="39.79" transform="matrix(.866 -.5 .5 .866 -47.03 221.44)"/><ellipse cx="424" cy="257.88" fill="#f4e6f4" rx="8.59" ry="23.12" transform="matrix(.866 -.5 .5 .866 -72.14 246.55)"/><path d="m280.61 117q2.83-8 13.66-14.27c12.74-7.44 25-7.17 32.41 5.49 7.24 12.76 1.44 23.6-11.39 30.92q-10.82 6.24-19.22 4.64c-10.85-1.52-19.59-16.58-15.46-26.78zm16.85 15.64q4.25-.07 11.59-4.31 7.14-4.13 9.34-7.84c3.11-4.63-.85-11.58-6.39-11.2-5-.3-18.79 7.69-21 12.13-3.14 4.58 1 11.64 6.46 11.25zm-39.46 27.36c-5.86-3.25-2.6-10.89 3.75-10.47l85.6.09c6.05-.43 9.6 6.9 4.05 10.31a7.86 7.86 0 0 1 -4.06 1l-85.6-.09a7.62 7.62 0 0 1 -3.74-.84zm22.58 25.45q2.83-8 13.76-14.33c12.7-7.45 24.93-7 32.31 5.55 7.24 12.78 1.36 23.5-11.45 30.82q-10.82 6.24-19.19 4.69c-10.87-1.46-19.59-16.57-15.46-26.7zm16.82 15.59q4.28 0 11.62-4.26 7.14-4.12 9.34-7.84c3.11-4.68-.87-11.58-6.47-11.23-5.14-.32-18.76 7.6-21 12.11-3.04 4.66.94 11.56 6.48 11.25z" fill="#dd5e26"/><path d="m411.61 275.22-57.05 98.78a12.58 12.58 0 0 1 -17.19 4.62l-240.69-139a12.57 12.57 0 0 1 -4.59-17.18l57-98.83a12.58 12.58 0 0 1 17.18-4.6l240.73 138.99a12.57 12.57 0 0 1 4.61 17.22z" fill="#fbcb74"/><path d="m411.61 275.22-55 95.26-237.11-136.9a12.58 12.58 0 0 1 -4.6-17.18l55-95.26 237.1 136.86a12.57 12.57 0 0 1 4.61 17.22z" fill="#fad98f"/><path d="m411.61 275.22-57.05 98.78a12.58 12.58 0 0 1 -17.19 4.62l-204.79-118.2 69.64-120.62 204.78 118.2a12.57 12.57 0 0 1 4.61 17.22z" fill="#decee5"/><path d="m411.61 275.22-55 95.26-215.68-124.48 61.29-106.2 204.78 118.2a12.57 12.57 0 0 1 4.61 17.22z" fill="#f4e6f4"/><path d="m195 152.28a3.32 3.32 0 0 1 -1.48-4.43l2.66-4.6a3.52 3.52 0 0 1 6.06 3.5l-2.65 4.6a3.33 3.33 0 0 1 -4.59.93z" fill="#f39e22"/><path d="m149 232.05a3.33 3.33 0 0 1 -1.48-4.44l5.12-8.86a3.53 3.53 0 0 1 6.06 3.5l-5.12 8.86a3.31 3.31 0 0 1 -4.58.94zm15.35-26.59a3.32 3.32 0 0 1 -1.48-4.43l5.12-8.87a3.53 3.53 0 0 1 6.06 3.5l-5.12 8.87a3.31 3.31 0 0 1 -4.62.93zm15.35-26.59a3.32 3.32 0 0 1 -1.48-4.43l5.12-8.86a3.52 3.52 0 0 1 6.06 3.49l-5.12 8.87a3.31 3.31 0 0 1 -4.62.93z" fill="#f39e22"/><path d="m136.07 254.38a3.33 3.33 0 0 1 -1.48-4.44l2.66-4.6a3.52 3.52 0 0 1 6.06 3.5l-2.66 4.6a3.32 3.32 0 0 1 -4.58.94z" fill="#f39e22"/><ellipse cx="322.76" cy="229.54" fill="#f9f2f9" rx="14.78" ry="39.79" transform="matrix(.5 -.866 .866 .5 -37.4 394.29)"/><ellipse cx="382.17" cy="263.83" fill="#f9f2f9" rx="8.59" ry="23.12" transform="matrix(.5 -.866 .866 .5 -37.4 462.88)"/><path d="m187.56 213.55q-1.55-8.38 4.69-19.2c7.32-12.8 18.05-18.69 30.82-11.44 12.65 7.43 13.05 19.72 5.6 32.47q-6.24 10.82-14.33 13.62c-10.17 4.09-25.28-4.58-26.78-15.45zm22.44 5.11q3.65-2.17 7.89-9.52 4.11-7.14 4.11-11.47c.37-5.55-6.53-9.6-11.14-6.5-4.49 2.25-12.43 16.06-12.14 21-.38 5.54 6.73 9.56 11.28 6.49zm-20.55 43.44c-6.7.12-7.69-8.13-2-10.93l74.18-42.73c5-3.4 11.76 1.17 8.66 6.91a8 8 0 0 1 -3 2.88l-74.18 42.77a7.48 7.48 0 0 1 -3.66 1.1zm32.29 10.76q-1.56-8.39 4.74-19.3c7.28-12.8 18.1-18.51 30.76-11.35 12.66 7.45 12.93 19.68 5.5 32.42q-6.24 10.81-14.28 13.66c-10.13 4.13-25.24-4.59-26.72-15.43zm22.36 5.08q3.69-2.15 7.93-9.49 4.12-7.14 4.17-11.47c.35-5.6-6.55-9.59-11.22-6.48-4.61 2.29-12.45 16-12.1 21-.32 5.5 6.58 9.5 11.22 6.44z" fill="#dd5e26"/><path d="m387.07 293.73v114.11a12.58 12.58 0 0 1 -12.58 12.59h-277.92a12.59 12.59 0 0 1 -12.57-12.59v-114.11a12.58 12.58 0 0 1 12.58-12.58h277.91a12.58 12.58 0 0 1 12.58 12.58z" fill="#fad98f"/><path d="m387.07 293.73v110h-273.8a12.58 12.58 0 0 1 -12.58-12.58v-110h273.8a12.58 12.58 0 0 1 12.58 12.58z" fill="#f9eaa5"/><path d="m387.07 293.73v114.11a12.58 12.58 0 0 1 -12.58 12.59h-236.49v-139.28h236.49a12.58 12.58 0 0 1 12.58 12.58z" fill="#ebd9ea"/><path d="m387.07 293.73v110h-249.07v-122.58h236.49a12.58 12.58 0 0 1 12.58 12.58z" fill="#f9f2f9"/><path d="m138 295.56a3.32 3.32 0 0 1 -3.5-3.1v-5.31a3.53 3.53 0 0 1 7 0v5.31a3.32 3.32 0 0 1 -3.5 3.1z" fill="#f39e22"/><path d="m138 387.67a3.32 3.32 0 0 1 -3.5-3.1v-10.24a3.53 3.53 0 0 1 7 0v10.24a3.32 3.32 0 0 1 -3.5 3.1zm0-30.67a3.31 3.31 0 0 1 -3.5-3.1v-10.27a3.53 3.53 0 0 1 7 0v10.23a3.31 3.31 0 0 1 -3.5 3.14zm0-30.7a3.32 3.32 0 0 1 -3.5-3.1v-10.27a3.53 3.53 0 0 1 7 0v10.23a3.32 3.32 0 0 1 -3.5 3.1z" fill="#f39e22"/><path d="m138 413.45a3.32 3.32 0 0 1 -3.5-3.1v-5.35a3.53 3.53 0 0 1 7 0v5.32a3.32 3.32 0 0 1 -3.5 3.13z" fill="#f39e22"/><ellipse cx="287.28" cy="298.59" fill="#fff" rx="39.79" ry="14.78"/><ellipse cx="355.87" cy="298.59" fill="#fff" rx="23.12" ry="8.59"/><g fill="#dd5e26"><path d="m162.2 352.34q-5.53-6.48-5.54-19c-.07-14.75 6.28-25.21 21-25.33 14.66.12 21.16 10.56 21.08 25.33q0 12.48-5.59 19c-6.8 8.66-24.22 8.66-30.95 0zm22-6.77q2.07-3.72 2.07-12.19 0-8.25-2.12-12c-2.46-5-10.46-5.05-12.9-.06-2.76 4.2-2.73 20.12 0 24.27 2.37 4.97 10.53 4.89 12.91-.02zm4 47.88c-5.74 3.45-10.73-3.2-7.18-8.48l42.87-74.09c2.65-5.45 10.77-4.87 11 1.65a7.88 7.88 0 0 1 -1.18 4l-43.01 74.09a7.52 7.52 0 0 1 -2.59 2.83zm33.34-6.83q-5.55-6.48-5.54-19.08c-.09-14.73 6.42-25.08 21-25.21 14.68.12 21 10.57 21 25.32q0 12.5-5.53 19c-6.87 8.61-24.32 8.61-31.02-.03zm21.91-6.77q2.12-3.72 2.12-12.2 0-8.23-2.12-12c-2.5-5-10.47-5-13 0-2.85 4.28-2.8 20 0 24.21 2.44 4.94 10.41 4.94 12.91-.01z"/><rect height="7" rx="3.5" width="95.84" x="274.48" y="334.09"/><rect height="7" rx="3.5" width="95.84" x="274.48" y="349.15"/><rect height="7" rx="3.29" width="95.84" x="274.48" y="364.2"/></g></svg>